<?xml version="1.0" encoding="utf-8"?>
<!-- Generator: Adobe Illustrator 28.2.0, SVG Export Plug-In . SVG Version: 6.00 Build 0)  -->
<svg version="1.1" id="Layer_1" xmlns="http://www.w3.org/2000/svg" xmlns:xlink="http://www.w3.org/1999/xlink" x="0px" y="0px"
	 viewBox="0 0 1366 768" style="enable-background:new 0 0 1366 768;" xml:space="preserve">
<style type="text/css">
	.st0{fill:#1B1464;}
	.st1{fill:#F15A24;}
	.st2{fill:#ED1C24;}
	.st3{fill:#F7931E;}
	.st4{fill:#FFFFFF;}
	.st5{display:none;}
	.st6{display:inline;}
</style>
<g>
	<g>
		<path d="M693.5,148C555.7,148,444,255.05,444,387.1s111.7,239.1,249.5,239.1S943,519.16,943,387.1S831.3,148,693.5,148z
			 M861.93,247.55c11.94,0,21.62,9.55,21.62,21.33s-9.68,21.33-21.62,21.33c-11.94,0-21.62-9.55-21.62-21.33
			S850,247.55,861.93,247.55z M893.46,349.77c0,28.96-23.79,52.44-53.14,52.44s-53.14-23.48-53.14-52.44s23.79-52.44,53.14-52.44
			S893.46,320.81,893.46,349.77z M745.29,161.33c42.03,0,76.11,33.63,76.11,75.11c0,41.48-34.08,75.11-76.11,75.11
			c-42.03,0-76.11-33.63-76.11-75.11C669.18,194.96,703.26,161.33,745.29,161.33z M659.27,606.65
			c-80.09,0-145.02-64.07-145.02-143.11s64.93-143.11,145.02-143.11s145.02,64.07,145.02,143.11S739.36,606.65,659.27,606.65z
			 M884.52,471.55l-59.6,33.96c-6.14,3.5-13.77-0.94-13.77-8v-67.91c0-7.07,7.63-11.5,13.77-8l59.6,33.96
			C890.72,459.08,890.72,468.02,884.52,471.55z M904.12,457.62l-53.27-30.35c-4.61-2.62-4.61-9.26,0-11.89l53.27-30.35
			c4.56-2.6,10.23,0.7,10.23,5.94v60.7C914.35,456.92,908.68,460.22,904.12,457.62z"/>
	</g>
	<g>
		<ellipse class="st0" cx="659.27" cy="463.55" rx="145.02" ry="143.11"/>
	</g>
	<g>
		<path class="st1" d="M745.29,311.55c42.03,0,76.11-33.63,76.11-75.11c0-41.48-34.08-75.11-76.11-75.11
			c-42.03,0-76.11,33.63-76.11,75.11C669.18,277.92,703.26,311.55,745.29,311.55z M742.23,221v-2.64l8.84-0.74V221
			C747.97,222.81,744.99,223.2,742.23,221z M788,266.72h-30.06l0.49-22.83l-9.08,10.83v-25.06L788,198.82V266.72z M745.18,196.19
			l0,12.4c0.74,1.41,1.57,1.19,2.45-0.07l1.39-12.33l6.96,13.34l-5.04,6.63h-8.71l-4.91-7.19L745.18,196.19z M703.45,196.77
			l41.73,33.14l-0.74,23.81l-13.01-9.65v23.39l-28.96,0.49L703.45,196.77z"/>
	</g>
	<g>
		<ellipse class="st2" cx="861.93" cy="268.89" rx="21.62" ry="21.33"/>
	</g>
	<g>
		<ellipse class="st3" cx="840.32" cy="349.77" rx="53.14" ry="52.44"/>
	</g>
	<g>
		<path class="st4" d="M884.52,455.54l-59.6-33.96c-6.14-3.5-13.77,0.94-13.77,8v67.91c0,7.07,7.63,11.5,13.77,8l59.6-33.96
			C890.72,468.02,890.72,459.08,884.52,455.54z"/>
	</g>
	<g>
		<path class="st4" d="M904.12,385.03l-53.27,30.35c-4.61,2.62-4.61,9.26,0,11.89l53.27,30.35c4.56,2.6,10.23-0.7,10.23-5.94v-60.7
			C914.35,385.73,908.68,382.44,904.12,385.03z"/>
	</g>
	<polygon points="731.43,244.07 744.44,253.71 745.18,229.9 703.45,196.77 702.47,267.95 731.43,267.46 	"/>
	<polygon points="749.35,254.72 758.43,243.89 757.94,266.72 788,266.72 788,198.82 749.35,229.66 	"/>
	<path d="M750.94,216.16l5.04-6.63l-6.96-13.34l-1.39,12.33c-0.88,1.26-1.71,1.49-2.45,0.07l0-12.4l-7.85,12.78l4.91,7.19H750.94z"
		/>
	<path d="M751.07,217.63l-8.84,0.74V221c2.76,2.2,5.74,1.81,8.84,0V217.63z"/>
</g>
<g>
	<g class="st5">
		<path class="st6" d="M868.25,382.8h14.97v20.77c-2.25,0.76-4.56,1.33-6.93,1.7c-2.37,0.37-5.02,0.56-7.95,0.56
			c-4.45,0-8.21-0.89-11.26-2.67s-5.38-4.31-6.96-7.6c-1.58-3.29-2.37-7.2-2.37-11.73c0-4.43,0.87-8.3,2.62-11.6
			c1.75-3.3,4.28-5.86,7.59-7.69c3.31-1.83,7.29-2.74,11.94-2.74c2.38,0,4.64,0.22,6.78,0.66s4.13,1.06,5.96,1.86l-1.9,4.34
			c-1.58-0.68-3.33-1.27-5.23-1.76c-1.9-0.49-3.87-0.73-5.9-0.73c-3.5,0-6.49,0.72-8.98,2.17c-2.49,1.45-4.39,3.49-5.71,6.12
			s-1.98,5.76-1.98,9.38c0,3.57,0.58,6.68,1.73,9.33c1.15,2.65,2.95,4.7,5.39,6.17s5.59,2.2,9.43,2.2c1.93,0,3.59-0.11,4.98-0.34
			c1.39-0.22,2.65-0.49,3.78-0.8v-13.12h-9.99V382.8z"/>
		<path class="st6" d="M907.42,372.54c0.64,0,1.32,0.03,2.02,0.1c0.7,0.07,1.33,0.16,1.88,0.28l-0.62,4.51
			c-0.53-0.14-1.11-0.24-1.76-0.32c-0.64-0.08-1.25-0.12-1.82-0.12c-1.29,0-2.5,0.26-3.65,0.78c-1.14,0.52-2.14,1.26-3,2.23
			s-1.53,2.13-2.02,3.49c-0.49,1.36-0.73,2.87-0.73,4.53v17.23h-4.89v-32.11h4.04l0.53,5.92h0.21c0.66-1.19,1.46-2.28,2.4-3.27
			c0.94-0.99,2.03-1.77,3.27-2.36S905.9,372.54,907.42,372.54z"/>
		<path class="st6" d="M929.37,372.6c3.83,0,6.67,0.86,8.53,2.58c1.86,1.72,2.78,4.46,2.78,8.23v21.83h-3.54l-0.94-4.75h-0.23
			c-0.9,1.17-1.84,2.15-2.81,2.94s-2.1,1.39-3.38,1.79c-1.28,0.4-2.85,0.6-4.7,0.6c-1.95,0-3.69-0.34-5.2-1.03s-2.71-1.72-3.57-3.11
			s-1.3-3.14-1.3-5.27c0-3.2,1.27-5.66,3.81-7.38s6.41-2.66,11.6-2.81l5.54-0.23v-1.96c0-2.77-0.6-4.72-1.79-5.83
			s-2.87-1.67-5.04-1.67c-1.68,0-3.28,0.24-4.8,0.73c-1.52,0.49-2.97,1.06-4.34,1.73l-1.49-3.69c1.45-0.74,3.11-1.38,4.98-1.9
			S927.3,372.6,929.37,372.6z M935.87,389.42l-4.89,0.21c-4,0.16-6.83,0.81-8.47,1.96s-2.46,2.78-2.46,4.89
			c0,1.84,0.56,3.19,1.67,4.07s2.59,1.32,4.42,1.32c2.85,0,5.19-0.79,7-2.37s2.72-3.96,2.72-7.12V389.42z"/>
		<path class="st6" d="M965.78,372.54c4,0,7.2,1.38,9.58,4.13s3.57,6.9,3.57,12.42c0,3.65-0.55,6.72-1.64,9.2s-2.63,4.36-4.61,5.62
			s-4.32,1.9-7.02,1.9c-1.7,0-3.19-0.22-4.48-0.67s-2.39-1.05-3.31-1.82s-1.68-1.59-2.29-2.49h-0.35c0.06,0.76,0.13,1.68,0.22,2.75
			s0.13,2.01,0.13,2.81v13.18h-4.89v-46.47h4.01l0.64,4.75h0.23c0.62-0.98,1.39-1.87,2.29-2.68c0.9-0.81,2-1.45,3.3-1.93
			C962.47,372.78,964.01,372.54,965.78,372.54z M964.93,376.64c-2.23,0-4.02,0.43-5.38,1.29c-1.36,0.86-2.35,2.14-2.97,3.85
			c-0.62,1.71-0.96,3.85-1,6.43v0.94c0,2.71,0.3,5.01,0.89,6.88s1.58,3.3,2.96,4.28s3.23,1.46,5.55,1.46c1.99,0,3.65-0.54,4.98-1.61
			s2.32-2.57,2.97-4.5c0.65-1.92,0.98-4.13,0.98-6.63c0-3.79-0.74-6.8-2.21-9.04C970.24,377.76,967.98,376.64,964.93,376.64z"/>
		<path class="st6" d="M992.27,359.65v13.62c0,0.78-0.02,1.57-0.06,2.36s-0.11,1.52-0.21,2.18h0.32c0.66-1.13,1.51-2.08,2.53-2.86
			c1.03-0.77,2.19-1.36,3.5-1.76c1.31-0.4,2.7-0.6,4.16-0.6c2.58,0,4.73,0.41,6.46,1.23s3.03,2.09,3.9,3.81
			c0.87,1.72,1.3,3.95,1.3,6.68v20.92h-4.8v-20.6c0-2.68-0.61-4.68-1.83-6.01c-1.22-1.33-3.09-1.99-5.61-1.99
			c-2.38,0-4.28,0.45-5.7,1.36s-2.43,2.24-3.05,4s-0.92,3.91-0.92,6.45v16.79h-4.86v-45.59H992.27z"/>
		<path class="st6" d="M1026.69,361.12c0.8,0,1.49,0.26,2.07,0.78c0.58,0.52,0.86,1.32,0.86,2.42c0,1.07-0.29,1.88-0.86,2.4
			s-1.26,0.79-2.07,0.79c-0.84,0-1.54-0.26-2.09-0.79s-0.83-1.33-0.83-2.4c0-1.09,0.28-1.9,0.83-2.42
			C1025.15,361.38,1025.85,361.12,1026.69,361.12z M1029.07,373.13v32.11h-4.86v-32.11H1029.07z"/>
		<path class="st6" d="M1052.21,405.82c-2.89,0-5.44-0.6-7.65-1.79s-3.93-3.01-5.16-5.45s-1.85-5.52-1.85-9.23
			c0-3.89,0.65-7.07,1.95-9.54c1.3-2.47,3.09-4.3,5.38-5.49c2.29-1.19,4.88-1.79,7.79-1.79c1.6,0,3.15,0.16,4.64,0.48
			s2.72,0.73,3.68,1.22l-1.46,4.07c-0.98-0.39-2.1-0.74-3.38-1.05c-1.28-0.31-2.48-0.47-3.59-0.47c-2.23,0-4.08,0.48-5.55,1.44
			c-1.47,0.96-2.58,2.36-3.31,4.22c-0.73,1.86-1.1,4.14-1.1,6.86c0,2.6,0.36,4.81,1.07,6.65s1.78,3.24,3.19,4.2s3.19,1.45,5.32,1.45
			c1.7,0,3.23-0.18,4.6-0.54c1.37-0.36,2.61-0.79,3.72-1.27v4.34c-1.07,0.55-2.27,0.97-3.59,1.26S1054.03,405.82,1052.21,405.82z"/>
		<path class="st6" d="M1088.86,396.45c0,2.05-0.51,3.77-1.54,5.17c-1.03,1.4-2.49,2.45-4.39,3.15s-4.17,1.05-6.81,1.05
			c-2.25,0-4.19-0.18-5.83-0.53s-3.08-0.85-4.31-1.49v-4.48c1.31,0.64,2.87,1.23,4.69,1.76s3.67,0.79,5.57,0.79
			c2.77,0,4.79-0.45,6.04-1.35s1.88-2.12,1.88-3.66c0-0.88-0.25-1.66-0.75-2.33s-1.33-1.33-2.5-1.96c-1.17-0.63-2.79-1.33-4.86-2.09
			c-2.05-0.78-3.82-1.56-5.32-2.33c-1.49-0.77-2.65-1.71-3.46-2.83c-0.81-1.11-1.22-2.56-1.22-4.34c0-2.71,1.1-4.8,3.3-6.25
			c2.2-1.45,5.08-2.18,8.66-2.18c1.93,0,3.75,0.19,5.43,0.57s3.27,0.89,4.73,1.54l-1.64,3.9c-1.33-0.57-2.74-1.04-4.25-1.44
			c-1.5-0.39-3.04-0.59-4.6-0.59c-2.25,0-3.97,0.37-5.17,1.11c-1.2,0.74-1.8,1.76-1.8,3.05c0,1,0.28,1.82,0.83,2.46
			s1.45,1.25,2.68,1.82c1.23,0.57,2.85,1.23,4.86,1.99c2.01,0.74,3.75,1.51,5.21,2.3s2.59,1.75,3.38,2.87
			C1088.46,393.25,1088.86,394.69,1088.86,396.45z"/>
		<path class="st6" d="M854.08,431.65v11.4c0,1.31-0.03,2.58-0.1,3.81s-0.12,2.19-0.16,2.87h0.26c0.88-1.45,2.15-2.67,3.81-3.66
			s3.78-1.49,6.36-1.49c4.02,0,7.23,1.39,9.62,4.17s3.59,6.92,3.59,12.41c0,3.61-0.55,6.66-1.64,9.14s-2.64,4.36-4.63,5.62
			s-4.35,1.9-7.06,1.9c-2.54,0-4.62-0.47-6.25-1.42s-2.89-2.1-3.76-3.47h-0.38l-1,4.31h-3.52v-45.59H854.08z M863.45,448.64
			c-2.32,0-4.17,0.45-5.54,1.36s-2.35,2.28-2.94,4.1c-0.6,1.83-0.89,4.14-0.89,6.93v0.26c0,4.04,0.67,7.13,2.02,9.27
			s3.8,3.21,7.35,3.21c2.99,0,5.23-1.09,6.72-3.28s2.24-5.31,2.24-9.38c0-4.14-0.74-7.26-2.21-9.35S866.48,448.64,863.45,448.64z"/>
		<path class="st6" d="M880.85,445.13h5.21l7.09,18.63c0.41,1.09,0.79,2.14,1.14,3.15s0.66,1.97,0.94,2.89s0.49,1.81,0.64,2.67h0.21
			c0.27-0.98,0.66-2.26,1.17-3.85s1.05-3.22,1.64-4.88l6.71-18.6h5.24l-13.97,36.83c-0.74,1.97-1.61,3.69-2.59,5.16
			s-2.18,2.59-3.59,3.38s-3.11,1.19-5.1,1.19c-0.92,0-1.73-0.05-2.43-0.16s-1.31-0.23-1.82-0.37v-3.9c0.43,0.1,0.95,0.19,1.57,0.26
			s1.25,0.12,1.92,0.12c1.21,0,2.26-0.23,3.15-0.69s1.66-1.13,2.3-2.01s1.2-1.92,1.67-3.13l1.76-4.51L880.85,445.13z"/>
		<path class="st6" d="M951.14,477.24l-14.38-37.91h-0.23c0.08,0.8,0.15,1.78,0.21,2.93s0.11,2.41,0.15,3.76
			c0.04,1.36,0.06,2.74,0.06,4.15v27.07h-4.63v-42.83h7.38l13.56,35.62h0.21l13.77-35.62h7.32v42.83h-4.92v-27.42
			c0-1.27,0.02-2.54,0.06-3.82c0.04-1.28,0.09-2.49,0.15-3.63s0.12-2.13,0.18-2.97h-0.23l-14.56,37.85H951.14z"/>
	</g>
</g>
</svg>
